<svg xmlns="http://www.w3.org/2000/svg" xmlns:xlink="http://www.w3.org/1999/xlink" width="24" height="24" preserveAspectRatio="xMidYMid meet" viewBox="0 0 24 24" style="-ms-transform:rotate(360deg);-webkit-transform:rotate(360deg);transform:rotate(360deg)"><g fill="none"><path fill="#626262" d="M6.5 3H3v3.5h1V4h2.5V3z"/><path fill="#626262" d="M8.5 4V3H11v1H8.5z"/><path fill="#626262" d="M13 4h2.5V3H13v1z"/><path fill="#626262" d="M17.5 3v1H20v2.5h1V3h-3.5z"/><path fill="#626262" d="M21 8.5h-1V11h1V8.5z"/><path fill="#626262" d="M21 13h-1v2.5h1V13z"/><path fill="#626262" d="M21 17.5h-1V20h-2.5v1H21v-3.5z"/><path fill="#626262" d="M15.5 21v-1H13v1h2.5z"/><path fill="#626262" d="M11 21v-1H8.5v1H11z"/><path fill="#626262" d="M6.5 21v-1H4v-2.5H3V21h3.5z"/><path fill="#626262" d="M3 15.5h1V13H3v2.5z"/><path fill="#626262" d="M3 11h1V8.5H3V11z"/><path fill="#626262" d="M11 9.5H7v-2h10v2h-4v7h-2v-7z"/></g><rect width="24" height="24" x="0" y="0" fill="rgba(0, 0, 0, 0)"/></svg>