<svg xmlns="http://www.w3.org/2000/svg" xmlns:xlink="http://www.w3.org/1999/xlink" width="24" height="24" preserveAspectRatio="xMidYMid meet" viewBox="0 0 24 24" style="-ms-transform:rotate(360deg);-webkit-transform:rotate(360deg);transform:rotate(360deg)"><path fill="#626262" d="M3 3h15v15H3V3m16 16h2v2h-2v-2m0-3h2v2h-2v-2m0-3h2v2h-2v-2m0-3h2v2h-2v-2m0-3h2v2h-2V7m-3 12h2v2h-2v-2m-3 0h2v2h-2v-2m-3 0h2v2h-2v-2m-3 0h2v2H7v-2z"/><rect width="24" height="24" x="0" y="0" fill="rgba(0, 0, 0, 0)"/></svg>