<svg><metadata>Created by FontForge 20090914 at Tue Apr 25 09:18:24 2017 By www-data Copyright thejamjar96 2010</metadata><defs><font id="Matt-Smith-Doctor-Who" horiz-adv-x="272"><font-face x-height="480" ascent="819" bbox="-32 -96 480 480" cap-height="480" descent="-205" font-family="Matt Smith Doctor Who" font-stretch="normal" font-weight="400" panose-1="0 0 4 0 0 0 0 0 0 0" underline-position="126" underline-thickness="51" unicode-range="U+000D-U+007A" units-per-em="1024"/><glyph d="M240 68v76h-77v-76h77zM316 157v76h-153v-76h153zM240 246v76h-77v-76h77zM316 335v76h-76c-21.333 0 -39.333 -7.33301 -54 -22c-15.333 -15.333 -23 -33.333 -23 -54h153zM0 0v480h480v-480h-480z" glyph-name=".notdef" horiz-adv-x="496"/><glyph glyph-name="uni0000" horiz-adv-x="0"/><glyph glyph-name="uni0000" horiz-adv-x="0"/><glyph glyph-name="uni000D" horiz-adv-x="0"/><glyph glyph-name="space" horiz-adv-x="128"/><glyph d="M128 224c4 0 7.66699 1.33301 11 4c3.33301 3.33301 5 7.33301 5 12v192c0 4 -1.66699 7.66699 -5 11s-7 5 -11 5c-4.66699 0 -8.66699 -1.66699 -12 -5c-2.66699 -3.33301 -4 -7 -4 -11v-192c0 -4.66699 1.33301 -8.66699 4 -12c3.33301 -2.66699 7.33301 -4 12 -4zM0 0 v16h16v432c0 8.66699 3 16 9 22c6 6.66699 13.667 10 23 10h160c8.66699 0 16 -3.33301 22 -10c6.66699 -6 10 -13.333 10 -22v-448h-96v112c0 4 -1.66699 7.66699 -5 11s-7 5 -11 5c-4.66699 0 -8.66699 -1.66699 -12 -5c-2.66699 -3.33301 -4 -7 -4 -11v-112h-112z" glyph-name="A" unicode="A"/><glyph d="M144 32v144c0 4 -1.66699 7.66699 -5 11s-7 5 -11 5c-4.66699 0 -8.66699 -1.66699 -12 -5c-2.66699 -3.33301 -4 -7 -4 -11v-144h32zM128 288c4 0 7.66699 1.33301 11 4c3.33301 3.33301 5 7.33301 5 12v144h-32v-144c0 -4.66699 1.33301 -8.66699 4 -12 c3.33301 -2.66699 7.33301 -4 12 -4zM0 0v16h16v448h-16v16h208c8.66699 0 16 -3.33301 22 -10c6.66699 -6 10 -13.333 10 -22v-416c0 -9.33301 -3.33301 -17 -10 -23c-6 -6 -13.333 -9 -22 -9h-208z" glyph-name="B" unicode="B"/><glyph d="M32 0c-9.33301 0 -17 3 -23 9s-9 13.667 -9 23v416c0 8.66699 3 16 9 22c6 6.66699 13.667 10 23 10h160c8.66699 0 16 -3.33301 22 -10c6.66699 -6 10 -13.333 10 -22v-128h-96v80c0 4 -1.66699 7.66699 -5 11s-7 5 -11 5c-4.66699 0 -8.66699 -1.66699 -12 -5 c-2.66699 -3.33301 -4 -7 -4 -11v-320c0 -4.66699 1.33301 -8.66699 4 -12c3.33301 -2.66699 7.33301 -4 12 -4c4 0 7.66699 1.33301 11 4c3.33301 3.33301 5 7.33301 5 12v80h96v-128c0 -9.33301 -3.33301 -17 -10 -23c-6 -6 -13.333 -9 -22 -9h-160z" glyph-name="C" horiz-adv-x="256" unicode="C"/><glyph d="M128 64c4 0 7.66699 1.33301 11 4c3.33301 3.33301 5 7.33301 5 12v320c0 4 -1.66699 7.66699 -5 11s-7 5 -11 5c-4.66699 0 -8.66699 -1.66699 -12 -5c-2.66699 -3.33301 -4 -7 -4 -11v-320c0 -4.66699 1.33301 -8.66699 4 -12c3.33301 -2.66699 7.33301 -4 12 -4zM0 0 v16h16v448h-16v16h208c8.66699 0 16 -3.33301 22 -10c6.66699 -6 10 -13.333 10 -22v-416c0 -9.33301 -3.33301 -17 -10 -23c-6 -6 -13.333 -9 -22 -9h-208z" glyph-name="D" unicode="D"/><glyph d="M32 0c-9.33301 0 -17 3 -23 9s-9 13.667 -9 23v448h192c8.66699 0 16 -3.33301 22 -10c6.66699 -6 10 -13.333 10 -22v-32h-96v-128h64c8.66699 0 16 -3.33301 22 -10c6.66699 -6 10 -13.333 10 -22v-32h-96v-160h96v-32c0 -9.33301 -3.33301 -17 -10 -23 c-6 -6 -13.333 -9 -22 -9h-160z" glyph-name="E" horiz-adv-x="256" unicode="E"/><glyph d="M0 0v16h16v432c0 8.66699 3 16 9 22c6 6.66699 13.667 10 23 10h160c8.66699 0 16 -3.33301 22 -10c6.66699 -6 10 -13.333 10 -22v-32h-96v-128h64c8.66699 0 16 -3.33301 22 -10c6.66699 -6 10 -13.333 10 -22v-32h-96v-224h-144z" glyph-name="F" unicode="F"/><glyph d="M32 0c-9.33301 0 -17 3 -23 9s-9 13.667 -9 23v416c0 8.66699 3 16 9 22c6 6.66699 13.667 10 23 10h192v-64h-128v-336c0 -4.66699 1.33301 -8.66699 4 -12c3.33301 -2.66699 7.33301 -4 12 -4c4 0 7.66699 1.33301 11 4c3.33301 3.33301 5 7.33301 5 12v208h96v-272h16 v-16h-208z" glyph-name="G" unicode="G"/><glyph d="M0 0v480h96v-176c0 -4.66699 1.33301 -8.66699 4 -12c3.33301 -2.66699 7.33301 -4 12 -4c4 0 7.66699 1.33301 11 4c3.33301 3.33301 5 7.33301 5 12v176h112v-16h-16v-448h16v-16h-112v176c0 4 -1.66699 7.66699 -5 11s-7 5 -11 5c-4.66699 0 -8.66699 -1.66699 -12 -5 c-2.66699 -3.33301 -4 -7 -4 -11v-176h-96z" glyph-name="H" unicode="H"/><glyph d="M0 0v480h112v-16h-16v-448h16v-16h-112z" glyph-name="I" horiz-adv-x="144" unicode="I"/><glyph d="M0 0v32c0 8.66699 3 16 9 22c6 6.66699 13.667 10 23 10h32v416h112v-16h-16v-432c0 -9.33301 -3.33301 -17 -10 -23c-6 -6 -13.333 -9 -22 -9h-128z" glyph-name="J" horiz-adv-x="208" unicode="J"/><glyph d="M0 0v16h16v448h-16v16h112v-176c0 -4.66699 1.33301 -8.66699 4 -12c3.33301 -2.66699 7.33301 -4 12 -4c4 0 7.66699 1.33301 11 4c3.33301 3.33301 5 7.33301 5 12v176h64c8.66699 0 16 -3.33301 22 -10c6.66699 -6 10 -13.333 10 -22v-160 c0 -9.33301 -3.33301 -17 -10 -23c-6 -6 -13.333 -9 -22 -9h-16v-32h16c8.66699 0 16 -3.33301 22 -10c6.66699 -6 10 -13.333 10 -22v-192h-96v176c0 4 -1.66699 7.66699 -5 11s-7 5 -11 5c-4.66699 0 -8.66699 -1.66699 -12 -5c-2.66699 -3.33301 -4 -7 -4 -11v-176h-112z" glyph-name="K" unicode="K"/><glyph d="M48 0c-9.33301 0 -17 3 -23 9s-9 13.667 -9 23v432h-16v16h112v-416h32c8.66699 0 16 -3.33301 22 -10c6.66699 -6 10 -13.333 10 -22v-32h-128z" glyph-name="L" horiz-adv-x="208" unicode="L"/><glyph d="M0 0v16h16v448h-16v16h336c8.66699 0 16 -3.33301 22 -10c6.66699 -6 10 -13.333 10 -22v-448h-96v400c0 4 -1.66699 7.66699 -5 11s-7 5 -11 5c-4.66699 0 -8.66699 -1.66699 -12 -5c-2.66699 -3.33301 -4 -7 -4 -11v-400h-96v400c0 4 -1.66699 7.66699 -5 11 s-7 5 -11 5c-4.66699 0 -8.66699 -1.66699 -12 -5c-2.66699 -3.33301 -4 -7 -4 -11v-400h-112z" glyph-name="M" horiz-adv-x="400" unicode="M"/><glyph d="M0 0v16h16v448h-16v16h240v-480h-96v400c0 4 -1.66699 7.66699 -5 11s-7 5 -11 5c-4.66699 0 -8.66699 -1.66699 -12 -5c-2.66699 -3.33301 -4 -7 -4 -11v-400h-112z" glyph-name="N" unicode="N"/><glyph d="M112 64c4 0 7.66699 1.33301 11 4c3.33301 3.33301 5 7.33301 5 12v320c0 4 -1.66699 7.66699 -5 11s-7 5 -11 5c-4.66699 0 -8.66699 -1.66699 -12 -5c-2.66699 -3.33301 -4 -7 -4 -11v-320c0 -4.66699 1.33301 -8.66699 4 -12c3.33301 -2.66699 7.33301 -4 12 -4zM32 0 c-9.33301 0 -17 3 -23 9s-9 13.667 -9 23v416c0 8.66699 3 16 9 22c6 6.66699 13.667 10 23 10h160c8.66699 0 16 -3.33301 22 -10c6.66699 -6 10 -13.333 10 -22v-416c0 -9.33301 -3.33301 -17 -10 -23c-6 -6 -13.333 -9 -22 -9h-160z" glyph-name="O" horiz-adv-x="256" unicode="O"/><glyph d="M0 0v16h16v432c0 8.66699 3 16 9 22c6 6.66699 13.667 10 23 10h192v-320c0 -9.33301 -3.33301 -17 -10 -23c-6 -6 -13.333 -9 -22 -9h-64v272c0 4 -1.66699 7.66699 -5 11s-7 5 -11 5c-4.66699 0 -8.66699 -1.66699 -12 -5c-2.66699 -3.33301 -4 -7 -4 -11v-400h-112z" glyph-name="P" unicode="P"/><glyph d="M0 -96v64h224v-64h-224zM112 64c4 0 7.66699 1.33301 11 4c3.33301 3.33301 5 7.33301 5 12v320c0 4 -1.66699 7.66699 -5 11s-7 5 -11 5c-4.66699 0 -8.66699 -1.66699 -12 -5c-2.66699 -3.33301 -4 -7 -4 -11v-320c0 -4.66699 1.33301 -8.66699 4 -12 c3.33301 -2.66699 7.33301 -4 12 -4zM32 0c-9.33301 0 -17 3 -23 9s-9 13.667 -9 23v416c0 8.66699 3 16 9 22c6 6.66699 13.667 10 23 10h160c8.66699 0 16 -3.33301 22 -10c6.66699 -6 10 -13.333 10 -22v-416c0 -9.33301 -3.33301 -17 -10 -23c-6 -6 -13.333 -9 -22 -9 h-160z" glyph-name="Q" horiz-adv-x="256" unicode="Q"/><glyph d="M0 0v16h16v448h-16v16h208c8.66699 0 16 -3.33301 22 -10c6.66699 -6 10 -13.333 10 -22v-160c0 -9.33301 -3.33301 -17 -10 -23c-6 -6 -13.333 -9 -22 -9h-16v-32h16c8.66699 0 16 -3.33301 22 -10c6.66699 -6 10 -13.333 10 -22v-192h-96v400 c0 4 -1.66699 7.66699 -5 11s-7 5 -11 5c-4.66699 0 -8.66699 -1.66699 -12 -5c-2.66699 -3.33301 -4 -7 -4 -11v-400h-112z" glyph-name="R" unicode="R"/><glyph d="M0 0v16h16v48h128v224h64c8.66699 0 16 -3.33301 22 -10c6.66699 -6 10 -13.333 10 -22v-224c0 -9.33301 -3.33301 -17 -10 -23c-6 -6 -13.333 -9 -22 -9h-208zM48 192c-9.33301 0 -17 3 -23 9s-9 13.667 -9 23v224c0 8.66699 3 16 9 22c6 6.66699 13.667 10 23 10h192 v-64h-128v-224h-64z" glyph-name="S" unicode="S"/><glyph d="M64 0v416h-64v64h224v-64h-64v-416h-96z" glyph-name="T" horiz-adv-x="256" unicode="T"/><glyph d="M32 0c-9.33301 0 -17 3 -23 9s-9 13.667 -9 23v448h96v-400c0 -4.66699 1.33301 -8.66699 4 -12c3.33301 -2.66699 7.33301 -4 12 -4c4 0 7.66699 1.33301 11 4c3.33301 3.33301 5 7.33301 5 12v400h96v-448c0 -9.33301 -3.33301 -17 -10 -23c-6 -6 -13.333 -9 -22 -9 h-160z" glyph-name="U" horiz-adv-x="256" unicode="U"/><glyph d="M0 0v16h16v464h96v-400c0 -4.66699 1.33301 -8.66699 4 -12c3.33301 -2.66699 7.33301 -4 12 -4c4 0 7.66699 1.33301 11 4c3.33301 3.33301 5 7.33301 5 12v368c0 8.66699 3 16 9 22c6 6.66699 13.667 10 23 10h64v-448c0 -9.33301 -3.33301 -17 -10 -23 c-6 -6 -13.333 -9 -22 -9h-208z" glyph-name="V" unicode="V"/><glyph d="M32 0c-9.33301 0 -17 3 -23 9s-9 13.667 -9 23v448h96v-400c0 -4.66699 1.33301 -8.66699 4 -12c3.33301 -2.66699 7.33301 -4 12 -4c4 0 7.66699 1.33301 11 4c3.33301 3.33301 5 7.33301 5 12v400h96v-400c0 -4.66699 1.33301 -8.66699 4 -12 c3.33301 -2.66699 7.33301 -4 12 -4c4 0 7.66699 1.33301 11 4c3.33301 3.33301 5 7.33301 5 12v400h112v-16h-16v-448h16v-16h-336z" glyph-name="W" horiz-adv-x="400" unicode="W"/><glyph d="M0 0v192c0 8.66699 3 16 9 22c6 6.66699 13.667 10 23 10h16v32h-16c-9.33301 0 -17 3 -23 9s-9 13.667 -9 23v192h96v-224h32v224h96v-192c0 -9.33301 -3.33301 -17 -10 -23c-6 -6 -13.333 -9 -22 -9h-16v-32h16c8.66699 0 16 -3.33301 22 -10 c6.66699 -6 10 -13.333 10 -22v-192h-96v224h-32v-224h-96z" glyph-name="X" horiz-adv-x="256" unicode="X"/><glyph d="M0 0v64h128v32h-96c-9.33301 0 -17 3 -23 9s-9 13.667 -9 23v352h96v-304c0 -4.66699 1.33301 -8.66699 4 -12c3.33301 -2.66699 7.33301 -4 12 -4c4 0 7.66699 1.33301 11 4c3.33301 3.33301 5 7.33301 5 12v304h112v-16h-16v-432c0 -9.33301 -3.33301 -17 -10 -23 c-6 -6 -13.333 -9 -22 -9h-192z" glyph-name="Y" unicode="Y"/><glyph d="M-16 0v16h-16v16h16v224c0 8.66699 3 16 9 22c6 6.66699 13.667 10 23 10h64v-224h128v-64h-224zM112 192v224h-128v48h-16v16h240v-256c0 -9.33301 -3.33301 -17 -10 -23c-6 -6 -13.333 -9 -22 -9h-64z" glyph-name="Z" horiz-adv-x="240" unicode="Z"/><glyph d="M128 224c4 0 7.66699 1.33301 11 4c3.33301 3.33301 5 7.33301 5 12v192c0 4 -1.66699 7.66699 -5 11s-7 5 -11 5c-4.66699 0 -8.66699 -1.66699 -12 -5c-2.66699 -3.33301 -4 -7 -4 -11v-192c0 -4.66699 1.33301 -8.66699 4 -12c3.33301 -2.66699 7.33301 -4 12 -4zM0 0 v16h16v432c0 8.66699 3 16 9 22c6 6.66699 13.667 10 23 10h160c8.66699 0 16 -3.33301 22 -10c6.66699 -6 10 -13.333 10 -22v-448h-96v112c0 4 -1.66699 7.66699 -5 11s-7 5 -11 5c-4.66699 0 -8.66699 -1.66699 -12 -5c-2.66699 -3.33301 -4 -7 -4 -11v-112h-112z" glyph-name="a" unicode="a"/><glyph d="M144 32v144c0 4 -1.66699 7.66699 -5 11s-7 5 -11 5c-4.66699 0 -8.66699 -1.66699 -12 -5c-2.66699 -3.33301 -4 -7 -4 -11v-144h32zM128 288c4 0 7.66699 1.33301 11 4c3.33301 3.33301 5 7.33301 5 12v144h-32v-144c0 -4.66699 1.33301 -8.66699 4 -12 c3.33301 -2.66699 7.33301 -4 12 -4zM0 0v16h16v448h-16v16h208c8.66699 0 16 -3.33301 22 -10c6.66699 -6 10 -13.333 10 -22v-416c0 -9.33301 -3.33301 -17 -10 -23c-6 -6 -13.333 -9 -22 -9h-208z" glyph-name="b" unicode="b"/><glyph d="M32 0c-9.33301 0 -17 3 -23 9s-9 13.667 -9 23v416c0 8.66699 3 16 9 22c6 6.66699 13.667 10 23 10h160c8.66699 0 16 -3.33301 22 -10c6.66699 -6 10 -13.333 10 -22v-128h-96v80c0 4 -1.66699 7.66699 -5 11s-7 5 -11 5c-4.66699 0 -8.66699 -1.66699 -12 -5 c-2.66699 -3.33301 -4 -7 -4 -11v-320c0 -4.66699 1.33301 -8.66699 4 -12c3.33301 -2.66699 7.33301 -4 12 -4c4 0 7.66699 1.33301 11 4c3.33301 3.33301 5 7.33301 5 12v80h96v-128c0 -9.33301 -3.33301 -17 -10 -23c-6 -6 -13.333 -9 -22 -9h-160z" glyph-name="c" horiz-adv-x="256" unicode="c"/><glyph d="M128 64c4 0 7.66699 1.33301 11 4c3.33301 3.33301 5 7.33301 5 12v320c0 4 -1.66699 7.66699 -5 11s-7 5 -11 5c-4.66699 0 -8.66699 -1.66699 -12 -5c-2.66699 -3.33301 -4 -7 -4 -11v-320c0 -4.66699 1.33301 -8.66699 4 -12c3.33301 -2.66699 7.33301 -4 12 -4zM0 0 v16h16v448h-16v16h208c8.66699 0 16 -3.33301 22 -10c6.66699 -6 10 -13.333 10 -22v-416c0 -9.33301 -3.33301 -17 -10 -23c-6 -6 -13.333 -9 -22 -9h-208z" glyph-name="d" unicode="d"/><glyph d="M32 0c-9.33301 0 -17 3 -23 9s-9 13.667 -9 23v448h192c8.66699 0 16 -3.33301 22 -10c6.66699 -6 10 -13.333 10 -22v-32h-96v-128h64c8.66699 0 16 -3.33301 22 -10c6.66699 -6 10 -13.333 10 -22v-32h-96v-160h96v-32c0 -9.33301 -3.33301 -17 -10 -23 c-6 -6 -13.333 -9 -22 -9h-160z" glyph-name="e" horiz-adv-x="256" unicode="e"/><glyph d="M0 0v16h16v432c0 8.66699 3 16 9 22c6 6.66699 13.667 10 23 10h160c8.66699 0 16 -3.33301 22 -10c6.66699 -6 10 -13.333 10 -22v-32h-96v-128h64c8.66699 0 16 -3.33301 22 -10c6.66699 -6 10 -13.333 10 -22v-32h-96v-224h-144z" glyph-name="f" unicode="f"/><glyph d="M32 0c-9.33301 0 -17 3 -23 9s-9 13.667 -9 23v416c0 8.66699 3 16 9 22c6 6.66699 13.667 10 23 10h192v-64h-128v-336c0 -4.66699 1.33301 -8.66699 4 -12c3.33301 -2.66699 7.33301 -4 12 -4c4 0 7.66699 1.33301 11 4c3.33301 3.33301 5 7.33301 5 12v208h96v-272h16 v-16h-208z" glyph-name="g" unicode="g"/><glyph d="M0 0v480h96v-176c0 -4.66699 1.33301 -8.66699 4 -12c3.33301 -2.66699 7.33301 -4 12 -4c4 0 7.66699 1.33301 11 4c3.33301 3.33301 5 7.33301 5 12v176h112v-16h-16v-448h16v-16h-112v176c0 4 -1.66699 7.66699 -5 11s-7 5 -11 5c-4.66699 0 -8.66699 -1.66699 -12 -5 c-2.66699 -3.33301 -4 -7 -4 -11v-176h-96z" glyph-name="h" unicode="h"/><glyph d="M0 0v480h112v-16h-16v-448h16v-16h-112z" glyph-name="i" horiz-adv-x="144" unicode="i"/><glyph d="M0 0v32c0 8.66699 3 16 9 22c6 6.66699 13.667 10 23 10h32v416h112v-16h-16v-432c0 -9.33301 -3.33301 -17 -10 -23c-6 -6 -13.333 -9 -22 -9h-128z" glyph-name="j" horiz-adv-x="208" unicode="j"/><glyph d="M0 0v16h16v448h-16v16h112v-176c0 -4.66699 1.33301 -8.66699 4 -12c3.33301 -2.66699 7.33301 -4 12 -4c4 0 7.66699 1.33301 11 4c3.33301 3.33301 5 7.33301 5 12v176h64c8.66699 0 16 -3.33301 22 -10c6.66699 -6 10 -13.333 10 -22v-160 c0 -9.33301 -3.33301 -17 -10 -23c-6 -6 -13.333 -9 -22 -9h-16v-32h16c8.66699 0 16 -3.33301 22 -10c6.66699 -6 10 -13.333 10 -22v-192h-96v176c0 4 -1.66699 7.66699 -5 11s-7 5 -11 5c-4.66699 0 -8.66699 -1.66699 -12 -5c-2.66699 -3.33301 -4 -7 -4 -11v-176h-112z" glyph-name="k" unicode="k"/><glyph d="M48 0c-9.33301 0 -17 3 -23 9s-9 13.667 -9 23v432h-16v16h112v-416h32c8.66699 0 16 -3.33301 22 -10c6.66699 -6 10 -13.333 10 -22v-32h-128z" glyph-name="l" horiz-adv-x="208" unicode="l"/><glyph d="M0 0v16h16v448h-16v16h336c8.66699 0 16 -3.33301 22 -10c6.66699 -6 10 -13.333 10 -22v-448h-96v400c0 4 -1.66699 7.66699 -5 11s-7 5 -11 5c-4.66699 0 -8.66699 -1.66699 -12 -5c-2.66699 -3.33301 -4 -7 -4 -11v-400h-96v400c0 4 -1.66699 7.66699 -5 11 s-7 5 -11 5c-4.66699 0 -8.66699 -1.66699 -12 -5c-2.66699 -3.33301 -4 -7 -4 -11v-400h-112z" glyph-name="m" horiz-adv-x="400" unicode="m"/><glyph d="M0 0v16h16v448h-16v16h240v-480h-96v400c0 4 -1.66699 7.66699 -5 11s-7 5 -11 5c-4.66699 0 -8.66699 -1.66699 -12 -5c-2.66699 -3.33301 -4 -7 -4 -11v-400h-112z" glyph-name="n" unicode="n"/><glyph d="M112 64c4 0 7.66699 1.33301 11 4c3.33301 3.33301 5 7.33301 5 12v320c0 4 -1.66699 7.66699 -5 11s-7 5 -11 5c-4.66699 0 -8.66699 -1.66699 -12 -5c-2.66699 -3.33301 -4 -7 -4 -11v-320c0 -4.66699 1.33301 -8.66699 4 -12c3.33301 -2.66699 7.33301 -4 12 -4zM32 0 c-9.33301 0 -17 3 -23 9s-9 13.667 -9 23v416c0 8.66699 3 16 9 22c6 6.66699 13.667 10 23 10h160c8.66699 0 16 -3.33301 22 -10c6.66699 -6 10 -13.333 10 -22v-416c0 -9.33301 -3.33301 -17 -10 -23c-6 -6 -13.333 -9 -22 -9h-160z" glyph-name="o" horiz-adv-x="256" unicode="o"/><glyph d="M0 0v16h16v432c0 8.66699 3 16 9 22c6 6.66699 13.667 10 23 10h192v-320c0 -9.33301 -3.33301 -17 -10 -23c-6 -6 -13.333 -9 -22 -9h-64v272c0 4 -1.66699 7.66699 -5 11s-7 5 -11 5c-4.66699 0 -8.66699 -1.66699 -12 -5c-2.66699 -3.33301 -4 -7 -4 -11v-400h-112z" glyph-name="p" unicode="p"/><glyph d="M0 -96v64h224v-64h-224zM112 64c4 0 7.66699 1.33301 11 4c3.33301 3.33301 5 7.33301 5 12v320c0 4 -1.66699 7.66699 -5 11s-7 5 -11 5c-4.66699 0 -8.66699 -1.66699 -12 -5c-2.66699 -3.33301 -4 -7 -4 -11v-320c0 -4.66699 1.33301 -8.66699 4 -12 c3.33301 -2.66699 7.33301 -4 12 -4zM32 0c-9.33301 0 -17 3 -23 9s-9 13.667 -9 23v416c0 8.66699 3 16 9 22c6 6.66699 13.667 10 23 10h160c8.66699 0 16 -3.33301 22 -10c6.66699 -6 10 -13.333 10 -22v-416c0 -9.33301 -3.33301 -17 -10 -23c-6 -6 -13.333 -9 -22 -9 h-160z" glyph-name="q" horiz-adv-x="256" unicode="q"/><glyph d="M0 0v16h16v448h-16v16h208c8.66699 0 16 -3.33301 22 -10c6.66699 -6 10 -13.333 10 -22v-160c0 -9.33301 -3.33301 -17 -10 -23c-6 -6 -13.333 -9 -22 -9h-16v-32h16c8.66699 0 16 -3.33301 22 -10c6.66699 -6 10 -13.333 10 -22v-192h-96v400 c0 4 -1.66699 7.66699 -5 11s-7 5 -11 5c-4.66699 0 -8.66699 -1.66699 -12 -5c-2.66699 -3.33301 -4 -7 -4 -11v-400h-112z" glyph-name="r" unicode="r"/><glyph d="M0 0v16h16v48h128v224h64c8.66699 0 16 -3.33301 22 -10c6.66699 -6 10 -13.333 10 -22v-224c0 -9.33301 -3.33301 -17 -10 -23c-6 -6 -13.333 -9 -22 -9h-208zM48 192c-9.33301 0 -17 3 -23 9s-9 13.667 -9 23v224c0 8.66699 3 16 9 22c6 6.66699 13.667 10 23 10h192 v-64h-128v-224h-64z" glyph-name="s" unicode="s"/><glyph d="M64 0v416h-64v64h224v-64h-64v-416h-96z" glyph-name="t" horiz-adv-x="256" unicode="t"/><glyph d="M32 0c-9.33301 0 -17 3 -23 9s-9 13.667 -9 23v448h96v-400c0 -4.66699 1.33301 -8.66699 4 -12c3.33301 -2.66699 7.33301 -4 12 -4c4 0 7.66699 1.33301 11 4c3.33301 3.33301 5 7.33301 5 12v400h96v-448c0 -9.33301 -3.33301 -17 -10 -23c-6 -6 -13.333 -9 -22 -9 h-160z" glyph-name="u" horiz-adv-x="256" unicode="u"/><glyph d="M0 0v16h16v464h96v-400c0 -4.66699 1.33301 -8.66699 4 -12c3.33301 -2.66699 7.33301 -4 12 -4c4 0 7.66699 1.33301 11 4c3.33301 3.33301 5 7.33301 5 12v368c0 8.66699 3 16 9 22c6 6.66699 13.667 10 23 10h64v-448c0 -9.33301 -3.33301 -17 -10 -23 c-6 -6 -13.333 -9 -22 -9h-208z" glyph-name="v" unicode="v"/><glyph d="M32 0c-9.33301 0 -17 3 -23 9s-9 13.667 -9 23v448h96v-400c0 -4.66699 1.33301 -8.66699 4 -12c3.33301 -2.66699 7.33301 -4 12 -4c4 0 7.66699 1.33301 11 4c3.33301 3.33301 5 7.33301 5 12v400h96v-400c0 -4.66699 1.33301 -8.66699 4 -12 c3.33301 -2.66699 7.33301 -4 12 -4c4 0 7.66699 1.33301 11 4c3.33301 3.33301 5 7.33301 5 12v400h112v-16h-16v-448h16v-16h-336z" glyph-name="w" horiz-adv-x="400" unicode="w"/><glyph d="M0 0v192c0 8.66699 3 16 9 22c6 6.66699 13.667 10 23 10h16v32h-16c-9.33301 0 -17 3 -23 9s-9 13.667 -9 23v192h96v-224h32v224h96v-192c0 -9.33301 -3.33301 -17 -10 -23c-6 -6 -13.333 -9 -22 -9h-16v-32h16c8.66699 0 16 -3.33301 22 -10 c6.66699 -6 10 -13.333 10 -22v-192h-96v224h-32v-224h-96z" glyph-name="x" horiz-adv-x="256" unicode="x"/><glyph d="M0 0v64h128v32h-96c-9.33301 0 -17 3 -23 9s-9 13.667 -9 23v352h96v-304c0 -4.66699 1.33301 -8.66699 4 -12c3.33301 -2.66699 7.33301 -4 12 -4c4 0 7.66699 1.33301 11 4c3.33301 3.33301 5 7.33301 5 12v304h112v-16h-16v-432c0 -9.33301 -3.33301 -17 -10 -23 c-6 -6 -13.333 -9 -22 -9h-192z" glyph-name="y" unicode="y"/><glyph d="M-16 0v16h-16v16h16v224c0 8.66699 3 16 9 22c6 6.66699 13.667 10 23 10h64v-224h128v-64h-224zM112 192v224h-128v48h-16v16h240v-256c0 -9.33301 -3.33301 -17 -10 -23c-6 -6 -13.333 -9 -22 -9h-64z" glyph-name="z" horiz-adv-x="240" unicode="z"/></font>
</defs>
</svg>
