<svg xmlns="http://www.w3.org/2000/svg" xmlns:xlink="http://www.w3.org/1999/xlink" width="22pt" height="22pt" version="1.1" viewBox="0 0 22 22"><g id="surface1"><path fill="#000" fill-opacity="1" fill-rule="evenodd" stroke="#000" stroke-linecap="butt" stroke-linejoin="miter" stroke-miterlimit="4" stroke-opacity="1" stroke-width="1" d="M 243.056533 2.56988 L 217.994863 10.654294 L 191.683085 3.640663 L 167.276233 11.296763 L 142.86938 3.640663 L 117.80771 10.86845 L 90.186296 3.640663 L 61.136189 11.51092 L 38.634262 4.283133 L 10.596146 13.43833 L 5.238544 26.769582 L 28.871521 36.353092 L 27.978587 47.596316 L 57.504926 58.625384 L 88.102784 49.30957 L 109.711778 57.554601 L 109.711778 68.423051 L 138.583299 79.452119 L 138.583299 86.465749 L 108.878373 99.422227 L 108.878373 121.480362 L 135.844969 132.50943 L 135.844969 142.521253 L 101.258673 157.565758 L 98.877517 185.138427 L 135.844969 202.163881 L 135.844969 215.548672 L 97.805996 234.608614 L 95.067667 270.74755 L 142.214562 297.677749 L 186.385012 276.262083 L 231.150751 298.320219 L 276.630837 271.122324 L 269.189724 233.323674 L 225.019274 214.638506 L 224.781158 202.592195 L 256.629124 184.549496 L 250.914349 156.066661 L 214.83983 142.521253 L 214.83983 133.366056 L 244.961458 118.964021 L 240.080088 97.708973 L 207.994006 86.198053 L 207.994006 80.737058 L 234.960601 69.011982 L 234.960601 56.483817 L 256.212422 48.452943 L 289.131908 58.411227 L 312.46724 46.311376 L 310.383728 35.924779 L 330.742615 26.394808 L 325.623129 11.939233 L 294.013279 3.640663 L 270.856533 10.654294 Z M 243.473235 9.797667 L 266.68951 16.65068 L 267.641972 21.576283 L 247.342614 27.626208 L 223.709638 20.184265 L 224.781158 16.115288 Z M 90.900643 10.22598 L 110.426125 17.186071 L 110.307067 21.897518 L 88.87666 29.339462 L 66.612848 22.111675 L 66.970022 17.186071 Z M 295.02527 10.761372 L 321.396576 18.363933 L 321.396576 22.647066 L 301.335334 27.51913 L 276.868953 22.058135 L 275.91649 16.757758 Z M 38.634262 11.296763 L 57.504926 17.828541 L 57.326339 22.111675 L 32.681371 29.660697 L 14.465525 23.075379 L 14.584583 18.310394 Z M 142.86938 11.51092 L 162.51392 17.560846 L 162.632978 22.593527 L 141.023984 29.44654 L 119.593577 22.807684 L 120.188866 17.93562 Z M 189.659102 11.939233 L 215.554177 16.543602 L 215.554177 21.79044 L 195.492935 28.375757 L 173.169595 21.79044 L 172.514777 17.400228 Z M 277.5833 28.482835 L 302.228268 36.834944 L 302.287797 42.295939 L 285.441116 48.6671 L 256.986298 40.582686 L 255.855248 35.442926 Z M 222.935762 28.911148 L 248.295077 36.781405 L 248.295077 41.278695 L 227.043257 49.416648 L 201.148181 40.796843 L 201.148181 36.299553 Z M 170.788438 29.018227 L 192.040258 36.834944 L 193.111779 41.492852 L 169.895505 49.202491 L 145.845826 41.118078 L 145.786297 37.049101 Z M 61.791007 29.44654 L 81.435547 35.550005 L 81.554604 40.582686 L 56.790579 49.202491 L 35.360172 40.796843 L 36.491221 35.550005 Z M 115.902785 29.44654 L 136.440258 36.513709 L 136.559316 41.760547 L 112.569166 48.774178 L 93.579444 43.206105 L 90.483941 36.513709 Z M 143.047967 49.523726 L 166.502357 57.126287 L 166.383299 63.015595 L 141.143042 71.421244 L 117.629123 62.266047 L 119.355461 56.590896 Z M 201.267239 49.523726 L 225.435976 57.233366 L 225.435976 62.962056 L 202.219702 71.207087 L 176.562742 62.05189 L 176.562742 57.340444 Z M 172.514777 70.511078 L 198.469381 80.683519 L 198.469381 85.983897 L 172.514777 95.567407 L 146.976875 86.733445 L 146.976875 79.773354 Z M 207.279659 95.406789 L 233.531908 105.57923 L 233.829552 115.002123 L 209.244113 124.853329 L 180.729766 112.592861 L 180.372592 105.257995 Z M 144.238545 96.477573 L 169.776447 105.418613 L 169.478802 113.610105 L 141.678802 123.996703 L 116.319487 111.950391 L 116.438545 106.007544 Z M 175.07452 123.675468 L 203.469809 135.347005 L 203.588867 142.628331 L 175.669809 154.942339 L 145.60771 142.628331 L 145.786297 135.507623 Z M 212.577732 154.299869 L 242.461244 166.935112 L 244.187582 176.786318 L 215.732764 188.939708 L 182.039402 173.734585 L 182.039402 167.524042 Z M 141.976447 154.621104 L 171.740901 166.613877 L 171.740901 175.876152 L 143.167025 189.582178 L 110.366596 176.197387 L 110.72377 166.613877 Z M 178.586725 190.492344 L 212.399145 203.395282 L 212.399145 213.996036 L 180.074948 231.02149 L 146.500644 213.085871 L 147.274519 203.984213 Z M 221.804713 229.040541 L 256.450537 243.335498 L 258.414991 259.82556 L 228.829124 277.172249 L 191.921201 258.326464 L 190.254391 244.673977 Z M 143.047967 230.486099 L 176.205569 246.226613 L 177.396147 259.236629 L 143.047967 277.279328 L 109.473663 259.022473 L 109.830836 246.976161 Z M 143.047967 230.486099" transform="matrix(0.0656194,0,0,0.0729606,0,0)"/></g></svg>